<?xml version="1.0" encoding="UTF-8" standalone="no"?>
<!-- Created with Inkscape (http://www.inkscape.org/) -->

<svg
   xmlns:dc="http://purl.org/dc/elements/1.1/"
   xmlns:cc="http://creativecommons.org/ns#"
   xmlns:rdf="http://www.w3.org/1999/02/22-rdf-syntax-ns#"
   xmlns:svg="http://www.w3.org/2000/svg"
   xmlns="http://www.w3.org/2000/svg"
   xmlns:sodipodi="http://sodipodi.sourceforge.net/DTD/sodipodi-0.dtd"
   xmlns:inkscape="http://www.inkscape.org/namespaces/inkscape"
   width="24"
   height="24"
   id="svg2"
   version="1.1"
   inkscape:version="0.47 r22583"
   sodipodi:docname="icon.svg">
  <defs
     id="defs4">
    <inkscape:perspective
       sodipodi:type="inkscape:persp3d"
       inkscape:vp_x="0 : 526.18109 : 1"
       inkscape:vp_y="0 : 1000 : 0"
       inkscape:vp_z="744.09448 : 526.18109 : 1"
       inkscape:persp3d-origin="372.04724 : 350.78739 : 1"
       id="perspective10" />
    <inkscape:perspective
       id="perspective2824"
       inkscape:persp3d-origin="0.5 : 0.33333333 : 1"
       inkscape:vp_z="1 : 0.5 : 1"
       inkscape:vp_y="0 : 1000 : 0"
       inkscape:vp_x="0 : 0.5 : 1"
       sodipodi:type="inkscape:persp3d" />
  </defs>
  <sodipodi:namedview
     id="base"
     pagecolor="#ffffff"
     bordercolor="#666666"
     borderopacity="1.0"
     inkscape:pageopacity="0.0"
     inkscape:pageshadow="2"
     inkscape:zoom="22.627417"
     inkscape:cx="-4.0882826"
     inkscape:cy="16.265206"
     inkscape:document-units="px"
     inkscape:current-layer="layer1"
     showgrid="true"
     inkscape:snap-smooth-nodes="true"
     inkscape:snap-midpoints="true"
     inkscape:snap-global="true"
     inkscape:window-width="1680"
     inkscape:window-height="975"
     inkscape:window-x="0"
     inkscape:window-y="24"
     inkscape:window-maximized="1"
     inkscape:snap-bbox="false"
     inkscape:object-paths="true"
     inkscape:snap-grids="false">
    <inkscape:grid
       type="xygrid"
       id="grid5092"
       empspacing="5"
       visible="true"
       enabled="true"
       snapvisiblegridlinesonly="true" />
  </sodipodi:namedview>
  <metadata
     id="metadata7">
    <rdf:RDF>
      <cc:Work
         rdf:about="">
        <dc:format>image/svg+xml</dc:format>
        <dc:type
           rdf:resource="http://purl.org/dc/dcmitype/StillImage" />
        <dc:title />
      </cc:Work>
    </rdf:RDF>
  </metadata>
  <g
     inkscape:label="Layer 1"
     inkscape:groupmode="layer"
     id="layer1"
     transform="translate(0,-1028.3622)">
    <path
       style="fill:none;stroke:#080800;stroke-width:0.22468708;stroke-linecap:butt;stroke-linejoin:round;stroke-miterlimit:4;stroke-opacity:1;stroke-dasharray:none"
       d="m 4.6746483,1048.3135 19.2061767,0 0,-15.7713 -19.2061767,0 c -4.06572299,1.4531 -7.6650795,10.8918 0,15.7713"
       id="path5096"
       sodipodi:nodetypes="ccccc" />
    <path
       style="fill:none;stroke:#000000;stroke-width:2.24687076px;stroke-linecap:butt;stroke-linejoin:miter;stroke-opacity:1"
       d="m 6.5952659,1048.3135 0,-2.6284 0,0"
       id="path5108" />
    <path
       style="fill:none;stroke:#000000;stroke-width:2.24687076px;stroke-linecap:butt;stroke-linejoin:miter;stroke-opacity:1"
       d="m 10.436501,1048.3135 0,-2.6284"
       id="path5110" />
    <path
       style="fill:none;stroke:#000000;stroke-width:2.24687076px;stroke-linecap:butt;stroke-linejoin:miter;stroke-opacity:1"
       d="m 14.258077,1048.4114 0.01967,-2.7263"
       id="path5114" />
    <path
       style="fill:none;stroke:#000000;stroke-width:2.24687076px;stroke-linecap:butt;stroke-linejoin:miter;stroke-opacity:1"
       d="m 18.118971,1048.3135 0,-2.6284"
       id="path5116" />
    <path
       style="fill:none;stroke:#000000;stroke-width:2.24687076px;stroke-linecap:butt;stroke-linejoin:miter;stroke-opacity:1"
       d="m 21.960208,1048.3135 0,-2.6284"
       id="path5118" />
    <path
       style="fill:none;stroke:#000000;stroke-width:2.24687076px;stroke-linecap:butt;stroke-linejoin:miter;stroke-opacity:1"
       d="m 6.6188685,1032.6043 -0.023602,2.5664 0,0 0,0"
       id="path5120" />
    <path
       style="fill:none;stroke:#000000;stroke-width:2.24687076px;stroke-linecap:butt;stroke-linejoin:miter;stroke-opacity:1"
       d="m 10.436501,1032.5422 0,2.6285"
       id="path5122" />
    <path
       style="fill:none;stroke:#000000;stroke-width:2.24687076px;stroke-linecap:butt;stroke-linejoin:miter;stroke-opacity:1"
       d="m 14.277737,1032.5422 0,2.6285"
       id="path5124" />
    <path
       style="fill:none;stroke:#000000;stroke-width:2.24687076px;stroke-linecap:butt;stroke-linejoin:miter;stroke-opacity:1"
       d="m 18.107997,1032.5627 0.01089,2.608"
       id="path5132" />
    <path
       style="fill:none;stroke:#000000;stroke-width:2.24687076px;stroke-linecap:butt;stroke-linejoin:miter;stroke-opacity:1"
       d="m 21.927602,1032.4798 0.03262,2.6909"
       id="path5134" />
    <text
       xml:space="preserve"
       style="font-size:7.50460815px;font-style:normal;font-weight:normal;fill:#000000;fill-opacity:1;stroke:none;font-family:Bitstream Vera Sans"
       x="4.8343015"
       y="1097.8453"
       id="text5136"
       transform="scale(1.0525592,0.95006537)"><tspan
         sodipodi:role="line"
         id="tspan5138"
         x="4.8343015"
         y="1097.8453">1</tspan></text>
    <text
       xml:space="preserve"
       style="font-size:6.73878622px;font-style:normal;font-weight:normal;fill:#000000;fill-opacity:1;stroke:none;font-family:Bitstream Vera Sans"
       x="10.521452"
       y="1004.3362"
       id="text5140"
       transform="scale(0.9629073,1.0385216)"><tspan
         sodipodi:role="line"
         id="tspan5142"
         x="10.521452"
         y="1004.3362">2</tspan></text>
    <text
       xml:space="preserve"
       style="font-size:6.49599886px;font-style:normal;font-weight:normal;fill:#000000;fill-opacity:1;stroke:none;font-family:Bitstream Vera Sans"
       x="15.785545"
       y="959.85095"
       id="text5144"
       transform="scale(0.92026222,1.0866468)"><tspan
         sodipodi:role="line"
         id="tspan5146"
         x="15.785545"
         y="959.85095">3</tspan></text>
    <text
       xml:space="preserve"
       style="font-size:6.75660944px;font-style:normal;font-weight:normal;fill:#000000;fill-opacity:1;stroke:none;font-family:Bitstream Vera Sans"
       x="19.581633"
       y="989.35126"
       id="text5148"
       transform="scale(0.94854046,1.0542513)"><tspan
         sodipodi:role="line"
         id="tspan5150"
         x="19.581633"
         y="989.35126">4</tspan></text>
    <path
       sodipodi:type="arc"
       style="fill:none;stroke:#0a0800;stroke-width:0.1;stroke-linecap:butt;stroke-linejoin:round;stroke-miterlimit:4;stroke-opacity:1;stroke-dasharray:none"
       id="path5184"
       sodipodi:cx="-24.953125"
       sodipodi:cy="-2.0703125"
       sodipodi:rx="0.765625"
       sodipodi:ry="0.7734375"
       d="m -24.1875,-2.0703125 c 0,0.4271577 -0.342782,0.7734375 -0.765625,0.7734375 -0.422843,0 -0.765625,-0.3462798 -0.765625,-0.7734375 0,-0.4271577 0.342782,-0.7734375 0.765625,-0.7734375 0.422843,0 0.765625,0.3462798 0.765625,0.7734375 z"
       transform="matrix(2.2170603,0,0,2.3816032,58.905744,1045.3017)" />
    <path
       style="opacity:1;fill:#fffc00;fill-opacity:1;fill-rule:nonzero;stroke:#0000ac;stroke-width:0.00441942000000000;stroke-linecap:butt;stroke-linejoin:round;stroke-miterlimit:4;stroke-opacity:1;stroke-dasharray:none;stroke-dashoffset:0"
       d="M 4.406024,19.600482 C 3.3417573,18.873316 2.4241597,17.954518 1.72739,16.918343 0.49900099,15.091591 0.04555791,12.730137 0.47880018,10.415901 0.97215737,7.7805516 2.5070091,5.4029511 4.2946085,4.5049279 4.6402943,4.3312682 4.6752073,4.3230038 5.0631433,4.3230038 l 0.4063972,0 0.011737,1.2484854 0.011737,1.2484854 1.109108,0.011793 1.1091076,0.011793 0.028691,-0.4979291 c 0.01578,-0.273861 0.028781,-0.8409863 0.028892,-1.2602785 l 2.011e-4,-0.7623495 0.751301,0 0.7513009,0 0,1.2595339 0,1.259534 1.1490489,0 1.149048,0 0,-1.259534 0,-1.2595339 0.773398,0 0.773398,0 0,1.2595339 0,1.259534 1.149049,0 1.149048,0 0,-1.259534 0,-1.2595339 0.773398,0 0.773398,0 0,1.2595339 0,1.259534 1.149049,0 1.149048,0 0,-1.259534 0,-1.2595339 0.773398,0 0.773398,0 0,1.2595339 0,1.259534 0.944007,0 c 0.519203,0 1.039158,-0.013042 1.155454,-0.028982 l 0.211447,-0.028982 -0.02339,-1.2305519 -0.02339,-1.2305519 0.348442,0 0.348443,0 0,7.7560774 0,7.756078 -0.331456,0 -0.331456,0 0,-1.259534 0,-1.259534 -1.149049,0 -1.149049,0 0,1.259534 0,1.259534 -0.773398,0 -0.773398,0 0,-1.259534 0,-1.259534 -1.149048,0 -1.149049,0 0,1.259534 0,1.259534 -0.773398,0 -0.773398,0 0,-1.257374 0,-1.257374 -1.115903,-0.01321 c -0.613746,-0.0073 -1.130818,-0.0071 -1.149048,4.46e-4 -0.01823,0.0075 -0.03315,0.579273 -0.03315,1.270582 l 0,1.256928 -0.773398,0 -0.773398,0 0,-1.259534 0,-1.259534 -1.149048,0 -1.1490489,0 0,1.259534 0,1.259534 -0.773398,0 -0.7733981,0 0,-1.259534 0,-1.259534 -1.1269514,0 -1.1269514,0 0,1.259534 0,1.259534 -0.364602,-0.0027 -0.3646019,-0.0027 -0.3356893,-0.229361 0,1e-6 z m 12.157365,-4.850688 c 0.732973,-0.118917 1.16809,-0.544099 1.281164,-1.25191 0.05474,-0.342664 -8.27e-4,-0.78727 -0.129621,-1.037087 C 17.6089,12.255128 17.379118,12.035094 17.185661,11.95398 L 17.03427,11.8905 17.185661,11.81389 c 0.368251,-0.186346 0.532546,-0.464447 0.561326,-0.950153 0.03728,-0.629219 -0.171104,-1.0272945 -0.670731,-1.2812731 -0.299252,-0.1521208 -0.314635,-0.1549461 -0.817592,-0.1501413 -0.357224,0.00341 -0.606373,0.030763 -0.821961,0.090231 l -0.309359,0.085334 -0.01301,0.346142 c -0.01197,0.3184904 -0.0067,0.3434574 0.06629,0.3125424 0.466149,-0.197512 1.066575,-0.2765533 1.388932,-0.182842 0.499611,0.145241 0.70901,0.638866 0.475572,1.121085 -0.137037,0.28308 -0.347393,0.377993 -0.890274,0.401692 l -0.430894,0.01881 0,0.30422 0,0.304219 0.364602,2.65e-4 c 0.438978,3.09e-4 0.647039,0.0526 0.833557,0.209546 0.412639,0.347212 0.406452,1.168208 -0.01115,1.480295 -0.236824,0.176985 -0.4436,0.222273 -0.915418,0.200496 -0.416511,-0.01923 -0.500005,-0.04369 -0.991599,-0.290616 -0.01925,-0.0097 -0.02919,0.146481 -0.0221,0.347002 l 0.01291,0.364584 0.176776,0.0628 c 0.242062,0.08599 0.714155,0.179803 0.928078,0.184424 0.09723,0.0021 0.305925,-0.01713 0.463773,-0.04274 l 0,-1.8e-5 z m -7.1591904,-0.394713 0,-0.309359 -0.6408155,0 -0.6408155,0 0,-2.298097 0,-2.2980971 -0.4308932,8.618e-4 C 7.4098124,9.4509554 7.0315027,9.4941451 6.5978686,9.575267 L 5.934956,9.6992812 5.9220486,10.038443 c -0.0071,0.186539 0.00475,0.339162 0.026321,0.339162 0.021576,0 0.3058078,-0.04953 0.6316262,-0.110065 0.325818,-0.06054 0.6271998,-0.110255 0.6697367,-0.110486 0.072492,-3.98e-4 0.07734,0.12148 0.07734,1.944123 l 0,1.944544 -0.6408156,0 -0.6408155,0 0,0.309359 0,0.30936 1.6793786,0 1.6793786,0 0,-0.30936 0,1e-6 z m 4.2426404,7.74e-4 0,-0.308588 -1.087833,-0.01182 -1.087833,-0.01182 0.759639,-0.839689 c 0.417802,-0.461829 0.857902,-0.977466 0.978,-1.145859 0.598638,-0.83937 0.503862,-1.855748 -0.216131,-2.3177662 -0.49632,-0.3184879 -1.157482,-0.3486619 -1.931201,-0.088136 l -0.441942,0.1488102 -0.01284,0.364602 c -0.01419,0.403095 3.97e-4,0.420455 0.232918,0.276762 0.231071,-0.14281 0.697171,-0.301795 0.977891,-0.333554 0.341991,-0.03869 0.597022,0.03278 0.812901,0.227813 0.19764,0.178555 0.274287,0.371312 0.271867,0.683704 -0.0035,0.453003 -0.237386,0.789752 -1.524875,2.195601 l -0.779964,0.851666 0,0.30843 0,0.30843 1.524699,0 1.524699,0 0,-0.308587 0,2e-6 z m 7.999146,-0.288036 0,-0.596621 0.331456,0 0.331456,0 0,-0.309359 0,-0.30936 -0.331456,0 -0.331456,0 0,-1.703076 0,-1.7030756 -0.423692,0.012649 -0.423692,0.012649 -0.967092,1.6351836 -0.967093,1.635185 -0.0013,0.364602 -0.0013,0.364602 1.06066,0 1.06066,0 0,0.596621 0,0.596621 0.331456,0 0.331457,0 0,-0.596621 z M 4.156073,13.883721 C 4.6478131,13.729 5.1584639,13.183844 5.3192419,12.641955 5.4144114,12.321194 5.418201,11.713887 5.3269162,11.41208 4.9817288,10.270821 3.7964747,9.7192812 2.7868546,10.230102 c -0.2619145,0.132517 -0.6696189,0.540584 -0.804753,0.805468 -0.3142789,0.616038 -0.2893212,1.429447 0.062266,2.029339 0.4442209,0.757948 1.2778347,1.081181 2.1117055,0.818812 l 0,0 z"
       id="path2834"
       transform="translate(0,1028.3622)" />
    <path
       style="opacity:0.4623656;fill:#ffff00;fill-opacity:1;fill-rule:nonzero;stroke:#0000ac;stroke-width:0.00441942;stroke-linecap:butt;stroke-linejoin:round;stroke-miterlimit:4;stroke-opacity:1;stroke-dasharray:none;stroke-dashoffset:0"
       d="m 19.450698,12.819334 c 0.0108,-0.01823 0.352001,-0.60988 0.758223,-1.314777 0.406222,-0.704897 0.746588,-1.289917 0.756368,-1.300045 0.0098,-0.01013 0.01778,0.581521 0.01778,1.314776 l 0,1.333191 -0.776006,0 c -0.426804,0 -0.767169,-0.01492 -0.756368,-0.03315 z"
       id="path2836"
       transform="translate(0,1028.3622)" />
  </g>
</svg>
