<?xml version="1.0" encoding="UTF-8" standalone="no"?>
<!-- Created with Inkscape (http://www.inkscape.org/) -->

<svg
   xmlns:dc="http://purl.org/dc/elements/1.1/"
   xmlns:cc="http://creativecommons.org/ns#"
   xmlns:rdf="http://www.w3.org/1999/02/22-rdf-syntax-ns#"
   xmlns:svg="http://www.w3.org/2000/svg"
   xmlns="http://www.w3.org/2000/svg"
   xmlns:sodipodi="http://sodipodi.sourceforge.net/DTD/sodipodi-0.dtd"
   xmlns:inkscape="http://www.inkscape.org/namespaces/inkscape"
   width="48"
   height="48"
   id="svg2"
   version="1.1"
   inkscape:version="0.47 r22583"
   sodipodi:docname="icon.svg">
  <defs
     id="defs4">
    <inkscape:perspective
       sodipodi:type="inkscape:persp3d"
       inkscape:vp_x="0 : 526.18109 : 1"
       inkscape:vp_y="0 : 1000 : 0"
       inkscape:vp_z="744.09448 : 526.18109 : 1"
       inkscape:persp3d-origin="372.04724 : 350.78739 : 1"
       id="perspective10" />
    <inkscape:perspective
       id="perspective2824"
       inkscape:persp3d-origin="0.5 : 0.33333333 : 1"
       inkscape:vp_z="1 : 0.5 : 1"
       inkscape:vp_y="0 : 1000 : 0"
       inkscape:vp_x="0 : 0.5 : 1"
       sodipodi:type="inkscape:persp3d" />
  </defs>
  <sodipodi:namedview
     id="base"
     pagecolor="#ffffff"
     bordercolor="#666666"
     borderopacity="1.0"
     inkscape:pageopacity="0.0"
     inkscape:pageshadow="2"
     inkscape:zoom="5.8125"
     inkscape:cx="17.11828"
     inkscape:cy="24"
     inkscape:document-units="px"
     inkscape:current-layer="layer1"
     showgrid="true"
     inkscape:snap-smooth-nodes="true"
     inkscape:snap-midpoints="true"
     inkscape:snap-global="true"
     inkscape:window-width="1024"
     inkscape:window-height="527"
     inkscape:window-x="0"
     inkscape:window-y="24"
     inkscape:window-maximized="1"
     inkscape:snap-bbox="false"
     inkscape:object-paths="true"
     inkscape:snap-grids="false">
    <inkscape:grid
       type="xygrid"
       id="grid5092"
       empspacing="5"
       visible="true"
       enabled="true"
       snapvisiblegridlinesonly="true" />
  </sodipodi:namedview>
  <metadata
     id="metadata7">
    <rdf:RDF>
      <cc:Work
         rdf:about="">
        <dc:format>image/svg+xml</dc:format>
        <dc:type
           rdf:resource="http://purl.org/dc/dcmitype/StillImage" />
        <dc:title />
      </cc:Work>
    </rdf:RDF>
  </metadata>
  <g
     inkscape:label="Layer 1"
     inkscape:groupmode="layer"
     id="layer1"
     transform="translate(0,-1004.3622)">
    <path
       style="fill:none;stroke:#080800;stroke-width:0.45603362;stroke-linecap:butt;stroke-linejoin:round;stroke-miterlimit:4;stroke-opacity:1;stroke-dasharray:none"
       d="m 9.298457,1043.7709 38.357968,0 0,-32.5304 -38.357968,0 c -8.1199331,2.9973 -15.3084539,22.4658 0,32.5304"
       id="path5096"
       sodipodi:nodetypes="ccccc" />
    <path
       style="fill:none;stroke:#000000;stroke-width:4.56033611px;stroke-linecap:butt;stroke-linejoin:miter;stroke-opacity:1"
       d="m 13.134254,1043.7709 0,-5.4213 0,0"
       id="path5108" />
    <path
       style="fill:none;stroke:#000000;stroke-width:4.56033611px;stroke-linecap:butt;stroke-linejoin:miter;stroke-opacity:1"
       d="m 20.805847,1043.7709 0,-5.4213"
       id="path5110" />
    <path
       style="fill:none;stroke:#000000;stroke-width:4.56033611px;stroke-linecap:butt;stroke-linejoin:miter;stroke-opacity:1"
       d="m 28.438177,1043.9729 0.03929,-5.6233"
       id="path5114" />
    <path
       style="fill:none;stroke:#000000;stroke-width:4.56033611px;stroke-linecap:butt;stroke-linejoin:miter;stroke-opacity:1"
       d="m 36.149032,1043.7709 0,-5.4213"
       id="path5116" />
    <path
       style="fill:none;stroke:#000000;stroke-width:4.56033611px;stroke-linecap:butt;stroke-linejoin:miter;stroke-opacity:1"
       d="m 43.82063,1043.7709 0,-5.4213"
       id="path5118" />
    <path
       style="fill:none;stroke:#000000;stroke-width:4.56033611px;stroke-linecap:butt;stroke-linejoin:miter;stroke-opacity:1"
       d="m 13.181392,1011.3686 -0.04713,5.2936 0,0 0,0"
       id="path5120" />
    <path
       style="fill:none;stroke:#000000;stroke-width:4.56033611px;stroke-linecap:butt;stroke-linejoin:miter;stroke-opacity:1"
       d="m 20.805847,1011.2405 0,5.4217"
       id="path5122" />
    <path
       style="fill:none;stroke:#000000;stroke-width:4.56033611px;stroke-linecap:butt;stroke-linejoin:miter;stroke-opacity:1"
       d="m 28.477442,1011.2405 0,5.4217"
       id="path5124" />
    <path
       style="fill:none;stroke:#000000;stroke-width:4.56033611px;stroke-linecap:butt;stroke-linejoin:miter;stroke-opacity:1"
       d="m 36.127115,1011.2828 0.02175,5.3794"
       id="path5132" />
    <path
       style="fill:none;stroke:#000000;stroke-width:4.56033611px;stroke-linecap:butt;stroke-linejoin:miter;stroke-opacity:1"
       d="m 43.75551,1011.1119 0.06515,5.5503"
       id="path5134" />
    <text
       xml:space="preserve"
       style="font-size:15.23164368px;font-style:normal;font-weight:normal;fill:#000000;fill-opacity:1;stroke:none;font-family:Bitstream Vera Sans"
       x="9.7755795"
       y="1069.7565"
       id="text5136"
       transform="scale(1.0357202,0.96551177)"><tspan
         sodipodi:role="line"
         id="tspan5138"
         x="9.7755795"
         y="1069.7565">1</tspan></text>
    <text
       xml:space="preserve"
       style="font-size:13.67730236px;font-style:normal;font-weight:normal;fill:#000000;fill-opacity:1;stroke:none;font-family:Bitstream Vera Sans"
       x="21.315062"
       y="978.63971"
       id="text5140"
       transform="scale(0.94750256,1.0554061)"><tspan
         sodipodi:role="line"
         id="tspan5142"
         x="21.315062"
         y="978.63971">2</tspan></text>
    <text
       xml:space="preserve"
       style="font-size:13.18453026px;font-style:normal;font-weight:normal;fill:#000000;fill-opacity:1;stroke:none;font-family:Bitstream Vera Sans"
       x="31.997433"
       y="935.28699"
       id="text5144"
       transform="scale(0.90553974,1.1043138)"><tspan
         sodipodi:role="line"
         id="tspan5146"
         x="31.997433"
         y="935.28699">3</tspan></text>
    <text
       xml:space="preserve"
       style="font-size:13.71347713px;font-style:normal;font-weight:normal;fill:#000000;fill-opacity:1;stroke:none;font-family:Bitstream Vera Sans"
       x="39.70335"
       y="964.03821"
       id="text5148"
       transform="scale(0.93336559,1.0713915)"><tspan
         sodipodi:role="line"
         id="tspan5150"
         x="39.70335"
         y="964.03821">4</tspan></text>
    <path
       sodipodi:type="arc"
       style="fill:none;stroke:#0a0800;stroke-width:0.1;stroke-linecap:butt;stroke-linejoin:round;stroke-miterlimit:4;stroke-opacity:1;stroke-dasharray:none"
       id="path5184"
       sodipodi:cx="-24.953125"
       sodipodi:cy="-2.0703125"
       sodipodi:rx="0.765625"
       sodipodi:ry="0.7734375"
       d="m -24.1875,-2.0703125 a 0.765625,0.7734375 0 1 1 -1.53125,0 0.765625,0.7734375 0 1 1 1.53125,0 z"
       transform="matrix(4.4278426,0,0,4.9123832,117.60708,1037.5588)" />
    <path
       style="fill:#fffc00;fill-opacity:1;fill-rule:nonzero;stroke:#0000ac;stroke-width:0.00896983;stroke-linecap:butt;stroke-linejoin:round;stroke-miterlimit:4;stroke-opacity:1;stroke-dasharray:none;stroke-dashoffset:0"
       d="m 8.7619691,1043.0474 c -2.1255197,-1.4999 -3.9581166,-3.3951 -5.349683,-5.5323 -2.4532996,-3.768 -3.35890174,-8.6387 -2.49364401,-13.4122 0.98531731,-5.4357 4.05067461,-10.3398 7.62081151,-12.1922 0.6903927,-0.3582 0.7601198,-0.3752 1.5348934,-0.3752 l 0.811643,0 0.02345,2.5751 0.02345,2.5753 2.215075,0.025 2.215075,0.024 0.0573,-1.0271 c 0.03151,-0.5649 0.05748,-1.7347 0.05771,-2.5994 l 4.03e-4,-1.5725 1.500474,0 1.500474,0 0,2.5979 0,2.598 2.294844,0 2.294844,0 0,-2.598 0,-2.5979 1.544605,0 1.544606,0 0,2.5979 0,2.598 2.294844,0 2.294842,0 0,-2.598 0,-2.5979 1.544606,0 1.544606,0 0,2.5979 0,2.598 2.294844,0 2.294843,0 0,-2.598 0,-2.5979 1.544606,0 1.544606,0 0,2.5979 0,2.598 1.885341,0 c 1.036935,0 2.075373,-0.026 2.307636,-0.06 l 0.422295,-0.06 -0.04671,-2.538 -0.04672,-2.5382 0.695898,0 0.695899,0 0,15.9979 0,15.998 -0.661973,0 -0.661974,0 0,-2.598 0,-2.5979 -2.294844,0 -2.294845,0 0,2.5979 0,2.598 -1.544605,0 -1.544606,0 0,-2.598 0,-2.5979 -2.294843,0 -2.294844,0 0,2.5979 0,2.598 -1.544605,0 -1.544607,0 0,-2.5935 0,-2.5934 -2.228645,-0.027 c -1.225755,-0.014 -2.258434,-0.014 -2.294843,10e-4 -0.0364,0.015 -0.0662,1.1948 -0.0662,2.6208 l 0,2.5925 -1.544606,0 -1.544605,0 0,-2.598 0,-2.5979 -2.294844,0 -2.294844,0 0,2.5979 0,2.598 -1.544605,0 -1.544607,0 0,-2.598 0,-2.5979 -2.250712,0 -2.250711,0 0,2.5979 0,2.598 -0.728171,-0.01 -0.7281718,-0.01 -0.670428,-0.4732 0,0 z m 24.2803039,-10.0053 c 1.463871,-0.2452 2.332873,-1.1223 2.5587,-2.5822 0.109325,-0.7068 -0.0016,-1.6238 -0.258875,-2.139 -0.211763,-0.4243 -0.670676,-0.8782 -1.057042,-1.0455 l -0.302354,-0.1309 0.302354,-0.158 c 0.735459,-0.3844 1.063583,-0.9579 1.121062,-1.9598 0.07445,-1.298 -0.341723,-2.1189 -1.339564,-2.6428 -0.597655,-0.3138 -0.628377,-0.3197 -1.632868,-0.3098 -0.713436,0.01 -1.211029,0.063 -1.641595,0.1861 l -0.617841,0.1761 -0.02598,0.714 c -0.02391,0.6569 -0.01339,0.7083 0.132393,0.6446 0.930978,-0.4074 2.130129,-0.5704 2.773931,-0.3771 0.997807,0.2995 1.416012,1.3177 0.949797,2.3124 -0.273686,0.5838 -0.693801,0.7796 -1.778027,0.8286 l -0.860568,0.039 0,0.6275 0,0.6275 0.728172,5e-4 c 0.876712,6e-4 1.292246,0.1084 1.664753,0.4323 0.82411,0.7161 0.811753,2.4095 -0.02227,3.0533 -0.472978,0.3649 -0.885945,0.4584 -1.828244,0.4135 -0.831843,-0.04 -0.998595,-0.09 -1.980391,-0.5996 -0.03845,-0.02 -0.0583,0.3022 -0.04414,0.7159 l 0.02578,0.752 0.353051,0.1295 c 0.48344,0.1773 1.426289,0.3709 1.853529,0.3804 0.194184,0 0.610983,-0.036 0.926232,-0.088 l 0,-10e-5 z m -14.298108,-0.8141 0,-0.638 -1.279816,0 -1.279816,0 0,-4.7403 0,-4.74 -0.860567,0 c -0.562925,0 -1.318474,0.091 -2.184515,0.2575 l -1.323947,0.2559 -0.02577,0.6995 c -0.01418,0.3848 0.0095,0.6996 0.05257,0.6996 0.04309,0 0.610751,-0.1021 1.261465,-0.227 0.650714,-0.1249 1.252623,-0.2274 1.337577,-0.2279 0.144778,-8e-4 0.154461,0.2506 0.154461,4.01 l 0,4.0109 -1.279817,0 -1.279817,0 0,0.6381 0,0.638 3.354002,0 3.354002,0 0,-0.638 0,0 z m 8.473266,0 0,-0.6365 -2.172584,-0.025 -2.172586,-0.025 1.517126,-1.7319 c 0.834422,-0.9525 1.713376,-2.0161 1.953231,-2.3635 1.195581,-1.7313 1.006297,-3.8277 -0.43165,-4.7807 -0.991234,-0.6569 -2.311686,-0.7192 -3.856934,-0.1818 l -0.882631,0.3069 -0.02564,0.7521 c -0.02834,0.8314 7.93e-4,0.8672 0.465175,0.5708 0.461489,-0.2945 1.392369,-0.6224 1.953015,-0.6879 0.683012,-0.079 1.192352,0.068 1.623499,0.4699 0.39472,0.3683 0.547797,0.7659 0.542965,1.4102 -0.007,0.9344 -0.4741,1.629 -3.045433,4.5288 l -1.557719,1.7566 0,0.6362 0,0.6362 3.04508,0 3.04508,0 0,-0.6365 0,0 z m 15.975642,-0.5941 0,-1.2307 0.661974,0 0.661973,0 0,-0.638 0,-0.6382 -0.661973,0 -0.661974,0 0,-3.5127 0,-3.5129 -0.846184,0.026 -0.846185,0.026 -1.931445,3.3729 -1.931447,3.3727 -0.0026,0.752 -0.0026,0.7521 2.118316,0 2.118317,0 0,1.2307 0,1.2305 0.661973,0 0.661976,0 0,-1.2305 z m -34.9302981,-0.3781 c 0.9820877,-0.3191 2.0019431,-1.4436 2.3230441,-2.5614 0.190069,-0.6615 0.197637,-1.9142 0.01533,-2.5367 -0.6893976,-2.354 -3.0565495,-3.4916 -5.0729307,-2.438 -0.5230874,0.2733 -1.3373417,1.115 -1.6072273,1.6613 -0.6276678,1.2707 -0.5778231,2.9486 0.1243557,4.1859 0.887184,1.5633 2.552051,2.2301 4.2174314,1.6889 l 0,0 z"
       id="path2834" />
    <path
       style="opacity:0.4623656;fill:#ffff00;fill-opacity:1;fill-rule:nonzero;stroke:#0000ac;stroke-width:0.00896983;stroke-linecap:butt;stroke-linejoin:round;stroke-miterlimit:4;stroke-opacity:1;stroke-dasharray:none;stroke-dashoffset:0"
       d="m 38.808716,1029.0604 c 0.02157,-0.038 0.703004,-1.258 1.514299,-2.7119 0.811293,-1.454 1.491061,-2.6607 1.510594,-2.6816 0.01957,-0.021 0.03551,1.1995 0.03551,2.7118 l 0,2.75 -1.549815,0 c -0.8524,0 -1.532166,-0.031 -1.510594,-0.069 z"
       id="path2836" />
  </g>
</svg>
